<svg class="svg-icon" style="width: 1em; height: 1em;vertical-align: middle;fill: currentColor;overflow: hidden;" viewBox="0 0 1024 1024" version="1.1" xmlns="http://www.w3.org/2000/svg"><path d="M678.001778 682.666667a11.377778 11.377778 0 0 1-11.377778-11.377778V56.888889a56.888889 56.888889 0 0 0-113.777778 0v939.633778a11.377778 11.377778 0 0 0 19.342222 8.078222l302.592-302.535111a11.377778 11.377778 0 0 0-8.078222-19.399111H678.001778z m-364.088889-341.333334c6.257778 0 11.377778 5.12 11.377778 11.377778V967.111111a56.888889 56.888889 0 0 0 113.777777 0V27.477333a11.377778 11.377778 0 0 0-19.399111-8.078222L117.134222 321.934222A11.377778 11.377778 0 0 0 125.155556 341.333333h188.700444z"  /></svg>